<svg width="265" height="265" viewBox="0 0 265 265" fill="none" xmlns="http://www.w3.org/2000/svg">
<circle cx="132.5" cy="132.5" r="132.5" fill="#A1CE50"/>
<path d="M132 204.9C172.262 204.9 204.9 172.262 204.9 132C204.9 91.7385 172.262 59.1001 132 59.1001C91.7385 59.1001 59.1001 91.7385 59.1001 132C59.1001 172.262 91.7385 204.9 132 204.9Z" fill="url(#paint0_linear_98_551)"/>
<path opacity="0.5" d="M132.611 203.925C92.3496 203.925 59.7115 171.286 59.7115 131.025C59.7115 117.274 63.5237 104.415 70.1417 93.4382C63.1524 104.626 59.1001 117.836 59.1001 132C59.1001 172.262 91.7386 204.9 132 204.9C158.509 204.9 181.708 190.748 194.468 169.59C181.589 190.203 158.708 203.925 132.611 203.925Z" fill="white"/>
<path d="M132 199.447C169.25 199.447 199.447 169.25 199.447 132C199.447 94.7505 169.25 64.5537 132 64.5537C94.7505 64.5537 64.5537 94.7505 64.5537 132C64.5537 169.25 94.7505 199.447 132 199.447Z" fill="url(#paint1_linear_98_551)"/>
<path d="M132 187.638C162.728 187.638 187.638 162.728 187.638 132C187.638 101.272 162.728 76.3618 132 76.3618C101.272 76.3618 76.3618 101.272 76.3618 132C76.3618 162.728 101.272 187.638 132 187.638Z" fill="url(#paint2_linear_98_551)"/>
<path d="M132 182.835C160.075 182.835 182.835 160.075 182.835 132C182.835 103.925 160.075 81.165 132 81.165C103.925 81.165 81.165 103.925 81.165 132C81.165 160.075 103.925 182.835 132 182.835Z" fill="url(#paint3_linear_98_551)"/>
<path opacity="0.1" d="M165.023 137.004C136.947 137.004 114.188 114.244 114.188 86.1686C114.188 85.5731 114.256 84.9951 114.277 84.4048C94.9542 91.605 81.165 110.168 81.165 132C81.165 160.076 103.924 182.835 132 182.835C159.48 182.835 181.808 161.016 182.746 133.764C177.22 135.823 171.266 137.004 165.023 137.004Z" fill="white"/>
<path opacity="0.2" d="M138.471 167.238C112.664 167.238 91.744 146.318 91.744 120.511C91.744 115.036 92.7344 109.804 94.4649 104.922C88.643 112.715 85.1538 122.352 85.1538 132.827C85.1538 158.634 106.074 179.554 131.881 179.554C152.212 179.554 169.462 166.546 175.887 148.417C167.366 159.822 153.802 167.238 138.471 167.238Z" fill="white"/>
<path opacity="0.3" d="M128.798 88.5702C156.874 88.5702 179.633 111.33 179.633 139.405C179.633 145.239 178.601 150.819 176.793 156.038C180.643 148.879 182.835 140.697 182.835 132C182.835 103.925 160.076 81.1655 132 81.1655C109.759 81.1655 90.902 95.4727 84.0056 115.368C92.5825 99.4181 109.42 88.5702 128.798 88.5702Z" fill="url(#paint4_linear_98_551)"/>
<path opacity="0.3" d="M84.2377 114.774C84.1651 114.974 84.0754 115.166 84.0054 115.367C84.3381 114.749 84.7052 114.153 85.0623 113.551C84.7865 113.958 84.5017 114.358 84.2377 114.774Z" fill="url(#paint5_linear_98_551)"/>
<path opacity="0.3" d="M132 81.165C113.392 81.165 97.1824 91.199 88.335 106.121C97.4659 92.6492 112.845 83.7668 130.349 83.7668C158.424 83.7668 181.184 106.526 181.184 134.601C181.184 141.193 179.919 147.488 177.633 153.266C177.367 154.196 177.107 155.129 176.792 156.037C180.642 148.879 182.835 140.697 182.835 132C182.835 103.925 160.075 81.165 132 81.165Z" fill="url(#paint6_linear_98_551)"/>
<path opacity="0.5" d="M130.699 78.4131C161.427 78.4131 186.337 103.323 186.337 134.051C186.337 144.525 183.439 154.32 178.407 162.685C184.235 153.888 187.638 143.343 187.638 132C187.638 101.272 162.728 76.3618 132 76.3618C111.746 76.3618 94.0253 87.1867 84.2939 103.363C94.255 88.3314 111.316 78.4131 130.699 78.4131Z" fill="url(#paint7_linear_98_551)"/>
<path opacity="0.3" d="M132.546 186.64C101.818 186.64 76.9084 161.73 76.9084 131.002C76.9084 121.575 79.2606 112.702 83.3978 104.922C78.9224 112.937 76.3618 122.168 76.3618 132C76.3618 162.728 101.272 187.638 132 187.638C153.302 187.638 171.8 175.662 181.149 158.08C171.638 175.115 153.442 186.64 132.546 186.64Z" fill="white"/>
<path opacity="0.4" d="M132 59.1001C112.152 59.1001 94.1672 67.0423 81.0212 79.9093C93.9168 68.3739 110.935 61.3519 129.599 61.3519C169.86 61.3519 202.499 93.9904 202.499 134.252C202.499 154.666 194.098 173.109 180.577 186.343C195.5 172.994 204.9 153.598 204.9 132C204.9 91.7386 172.262 59.1001 132 59.1001Z" fill="white"/>
<path opacity="0.5" d="M132 59.1001C112.886 59.1001 95.5134 66.4798 82.5132 78.5161C95.3575 67.1962 112.206 60.3151 130.672 60.3151C170.934 60.3151 203.572 92.9536 203.572 133.215C203.572 153.952 194.892 172.643 180.992 185.916C180.852 186.056 180.719 186.204 180.577 186.343C195.5 172.994 204.9 153.598 204.9 132C204.9 91.7386 172.262 59.1001 132 59.1001Z" fill="white"/>
<path opacity="0.4" d="M133.42 197.464C93.1587 197.464 60.5202 164.826 60.5202 124.564C60.5202 120.82 60.8047 117.143 61.349 113.551C59.8835 119.314 59.1001 125.35 59.1001 131.569C59.1001 171.831 91.7386 204.469 132 204.469C168.518 204.469 198.762 177.618 204.071 142.583C196.05 174.129 167.463 197.464 133.42 197.464Z" fill="url(#paint8_linear_98_551)"/>
<path opacity="0.3" d="M132.125 60.1509C111.556 60.1509 93.0501 68.974 80.1753 83.0376C91.6766 74.8627 105.727 70.0403 120.912 70.0403C159.804 70.0403 191.332 101.568 191.332 140.46C191.332 158.782 184.331 175.466 172.863 187.993C190.818 175.231 202.545 154.277 202.545 130.57C202.545 91.6787 171.017 60.1509 132.125 60.1509Z" fill="white"/>
<path opacity="0.6" d="M132.957 181.734C104.882 181.734 82.1219 158.975 82.1219 130.899C82.1219 117.142 87.6091 104.683 96.4861 95.531C86.9615 104.77 81.0212 117.683 81.0212 132C81.0212 160.076 103.781 182.835 131.856 182.835C146.174 182.835 159.086 176.895 168.325 167.37C159.173 176.247 146.714 181.734 132.957 181.734Z" fill="white"/>
<path opacity="0.1" d="M174.706 169.876C124.773 169.876 84.2943 129.397 84.2943 79.4638C84.2943 78.5909 84.3355 77.7281 84.3601 76.8611C78.8382 81.6394 74.0277 87.2181 70.141 93.4392C70.1417 93.4389 70.1417 93.4385 70.1417 93.4379C70.1414 93.4382 70.141 93.4392 70.1407 93.4395C68.4378 96.1657 66.916 99.0133 65.5791 101.965C65.5143 102.108 65.4492 102.25 65.3854 102.394C64.1046 105.271 63.0036 108.244 62.0994 111.303C62.0248 111.554 61.9565 111.806 61.8846 112.059C61.6642 112.834 61.4481 113.612 61.2531 114.398C61.2923 114.118 61.3069 113.83 61.349 113.551C60.1631 118.215 59.4497 123.065 59.2109 128.039C59.1798 128.618 59.1733 129.203 59.1558 129.785C59.1416 130.38 59.1001 130.97 59.1001 131.569C59.1001 131.641 59.1053 131.712 59.1056 131.785C59.1053 131.857 59.1001 131.928 59.1001 132C59.1001 172.262 91.7386 204.9 132 204.9C133.497 204.9 134.978 204.841 136.452 204.752C136.895 204.725 137.334 204.686 137.775 204.651C138.846 204.567 139.91 204.461 140.967 204.331C141.412 204.277 141.858 204.225 142.3 204.162C143.592 203.979 144.872 203.767 146.141 203.517C146.288 203.488 146.438 203.468 146.584 203.438C147.999 203.15 149.394 202.814 150.778 202.446C151.16 202.344 151.536 202.231 151.915 202.123C152.945 201.831 153.966 201.519 154.977 201.183C155.38 201.049 155.784 200.916 156.184 200.775C157.33 200.372 158.462 199.942 159.581 199.484C159.773 199.406 159.97 199.336 160.161 199.256C161.476 198.705 162.768 198.112 164.043 197.487C164.333 197.344 164.617 197.191 164.905 197.045C165.897 196.542 166.876 196.019 167.841 195.473C168.184 195.279 168.525 195.084 168.865 194.884C169.884 194.285 170.888 193.662 171.875 193.016C172.066 192.891 172.263 192.773 172.452 192.646C173.642 191.851 174.807 191.021 175.946 190.159C176.128 190.021 176.304 189.875 176.485 189.735C177.428 189.007 178.352 188.257 179.257 187.485C179.529 187.253 179.798 187.02 180.065 186.785C180.953 186.005 181.822 185.205 182.671 184.384C182.841 184.219 183.015 184.061 183.184 183.895C184.214 182.879 185.215 181.835 186.184 180.76C186.263 180.671 186.338 180.579 186.418 180.49C187.278 179.525 188.11 178.533 188.919 177.523C189.125 177.266 189.327 177.007 189.528 176.748C190.254 175.816 190.958 174.866 191.639 173.898C191.786 173.69 191.937 173.486 192.081 173.277C193.381 171.388 194.56 169.414 195.681 167.404C188.947 169.004 181.93 169.876 174.706 169.876Z" fill="white"/>
<defs>
<linearGradient id="paint0_linear_98_551" x1="204.517" y1="62.6826" x2="12.8731" y2="245.872" gradientUnits="userSpaceOnUse">
<stop stop-color="#E1E4F7"/>
<stop offset="1" stop-color="#D1D4E6"/>
</linearGradient>
<linearGradient id="paint1_linear_98_551" x1="58.5513" y1="218.024" x2="212.857" y2="37.3005" gradientUnits="userSpaceOnUse">
<stop stop-color="#E1E4F7"/>
<stop offset="1" stop-color="#D1D4E6"/>
</linearGradient>
<linearGradient id="paint2_linear_98_551" x1="98.5795" y1="185.981" x2="180.236" y2="54.0907" gradientUnits="userSpaceOnUse">
<stop stop-color="#E1E4F7"/>
<stop offset="0.9946" stop-color="#A7ABC7"/>
</linearGradient>
<linearGradient id="paint3_linear_98_551" x1="111.212" y1="181.231" x2="155.242" y2="76.9592" gradientUnits="userSpaceOnUse">
<stop stop-color="#E1E4F7"/>
<stop offset="1" stop-color="#D1D4E6"/>
</linearGradient>
<linearGradient id="paint4_linear_98_551" x1="129.634" y1="137.661" x2="153.692" y2="80.6867" gradientUnits="userSpaceOnUse">
<stop stop-color="#E1E4F7"/>
<stop offset="1" stop-color="#ACAFC7"/>
</linearGradient>
<linearGradient id="paint5_linear_98_551" x1="84.0997" y1="115.465" x2="85.0023" y2="113.328" gradientUnits="userSpaceOnUse">
<stop stop-color="#E1E4F7"/>
<stop offset="1" stop-color="#ACAFC7"/>
</linearGradient>
<linearGradient id="paint6_linear_98_551" x1="129.865" y1="137.759" x2="153.924" y2="80.784" gradientUnits="userSpaceOnUse">
<stop stop-color="#E1E4F7"/>
<stop offset="1" stop-color="#ACAFC7"/>
</linearGradient>
<linearGradient id="paint7_linear_98_551" x1="139.456" y1="123.602" x2="165.524" y2="96.5836" gradientUnits="userSpaceOnUse">
<stop stop-color="#E1E4F7"/>
<stop offset="1" stop-color="#8D90A3"/>
</linearGradient>
<linearGradient id="paint8_linear_98_551" x1="183.936" y1="89.5713" x2="29.6375" y2="237.063" gradientUnits="userSpaceOnUse">
<stop stop-color="#E1E4F7"/>
<stop offset="0.9946" stop-color="#A7ABC7"/>
</linearGradient>
</defs>
</svg>
